<?xml version="1.0" encoding="UTF-8" standalone="no"?>
<!-- Created with Inkscape (http://www.inkscape.org/) -->

<svg
   version="1.1"
   id="svg2"
   width="240.51405"
   height="237.81076"
   viewBox="0 0 240.51405 237.81076"
   xmlns="http://www.w3.org/2000/svg"
   xmlns:svg="http://www.w3.org/2000/svg">
  <defs
     id="defs6" />
  <g
     id="g8"
     transform="translate(-129.74298,-131.09462)">
    <rect
       style="fill:#152b48;fill-opacity:1;fill-rule:evenodd"
       id="rect1001"
       width="240.51405"
       height="237.81076"
       x="129.74298"
       y="131.09462" />
    <path
       style="fill:#ffffff;stroke:none"
       d="m 243.47965,131.711 c -11.226,2.435 -15.431,12.294 -17.87,22.481 -3.967,16.572 -7.111,43.851 -0.652,60 4.702,11.755 16.177,21.529 29.522,18.471 26.444,-6.06 20.914,-38.68 20.039,-58.471 -0.414,-9.376 -0.593,-20.315 -4.558,-29 -4.893,-10.72 -14.928,-15.988 -26.481,-13.481 m -97,68.999 c -17.33,3.704 -21.755,23.65 -10.671,36.442 4.455,5.142 10.835,8.319 16.671,11.616 15.19,8.581 37.797,22.288 56,17.891 17.584,-4.247 21.305,-27.948 10.62,-40.377 -5.163,-6.005 -12.557,-8.551 -19.62,-11.514 -15.7,-6.588 -35.389,-17.822 -53,-14.058 m 193,-0.054 c -17.986,3.178 -50.747,12.734 -61.298,28.536 -10.942,16.388 1.79,41.239 22.298,38.546 19.888,-2.611 53.287,-17.009 65.061,-33.546 14.105,-19.812 -6.037,-37.074 -26.061,-33.536 m -94,44.019 c -19.332,4.191 -12.811,35.91 7,31.822 21.223,-4.38 15,-36.591 -7,-31.822 m -34,34.046 c -7.821,1.796 -13.531,7.588 -18.572,13.471 -11.401,13.306 -27.929,31.44599 -31.899,49 -4.032,17.82 11.746,30.33 28.471,26.471 6.942,-1.602 12.122,-6.609 17,-11.472 12.032,-11.992 32.39,-29.85501 36.468,-46.999 4.807,-20.212 -11.976,-34.945 -31.468,-30.471 m 61,-0.01 c -14.378,3.119 -20.492,20.517 -15.532,33.481 2.673,6.985 7.743,13.28299 12.456,18.99999 12.242,14.85001 31.415,42.65001 54.076,36.95601 13.62,-3.423 18.403,-20 13.096,-31.95601 -4.131,-9.304 -10.986,-17.81499 -16.945,-25.99999 -11.831,-16.252 -23.973,-36.51 -47.151,-31.481 z"
       id="path847" />
  </g>
</svg>
